<?xml version="1.0" encoding="UTF-8" standalone="no"?>
<!-- Created with Inkscape (http://www.inkscape.org/) -->

<svg
   version="1.1"
   id="svg1"
   width="1142.1833"
   height="1136.3438"
   viewBox="0 0 1142.1834 1136.3438"
   sodipodi:docname="TPS-5.svg"
   inkscape:version="1.4.2 (f4327f4, 2025-05-13)"
   xmlns:inkscape="http://www.inkscape.org/namespaces/inkscape"
   xmlns:sodipodi="http://sodipodi.sourceforge.net/DTD/sodipodi-0.dtd"
   xmlns="http://www.w3.org/2000/svg"
   xmlns:svg="http://www.w3.org/2000/svg">
  <defs
     id="defs1" />
  <sodipodi:namedview
     id="namedview1"
     pagecolor="#ffffff"
     bordercolor="#000000"
     borderopacity="0.25"
     inkscape:showpageshadow="2"
     inkscape:pageopacity="0.0"
     inkscape:pagecheckerboard="0"
     inkscape:deskcolor="#d1d1d1"
     inkscape:zoom="0.56674035"
     inkscape:cx="548.75218"
     inkscape:cy="592.86409"
     inkscape:window-width="1610"
     inkscape:window-height="862"
     inkscape:window-x="113"
     inkscape:window-y="92"
     inkscape:window-maximized="0"
     inkscape:current-layer="g1" />
  <g
     inkscape:groupmode="layer"
     inkscape:label="Image"
     id="g1"
     transform="translate(-221.60282,-36.362536)">
    <path
       id="path1"
       style="fill:#000000"
       d="m 1184.6348,219.19881 c -10.685,-10.69633 -21.5107,-20.68663 -26.7512,-24.23499 -0.9275,-0.62806 -3.8119,-2.83495 -6.4096,-4.90417 -2.5977,-2.0692 -6.3824,-4.82078 -8.4093,-6.11398 -2.0269,-1.29321 -5.0256,-3.32308 -6.6637,-4.51195 -5.919,-4.29564 -26.4931,-16.04539 -37.3399,-21.32507 -45.0226,-21.91473 -95.7991,-33.89264 -147.2895,-34.74353 -18.22913,-0.30124 -37.78031,1.24169 -59.92868,4.7274 -8.66207,1.36323 -20.58336,2.30664 -26.93359,2.13237 -17.35379,-0.47621 -36.80821,-5.82949 -50.10514,-13.78859 -10.62512,-6.35985 -6.80777,-2.93724 -53.96385,-48.395384 -12.76578,-12.306111 -16.69963,-15.627788 -22.4244,-18.93306 -23.74632,-13.710249 -52.61415,-16.504692 -79.29678,-7.677355 -7.14585,2.364035 -22.38075,9.975368 -27.3852,13.682248 -1.80524,1.337174 -4.27384,3.005147 -5.48699,3.705402 -3.36349,1.941517 -82.68116,80.825189 -86.83049,86.355419 -7.04944,9.39549 -8.39618,11.52149 -12.61329,19.91362 -9.58805,19.08037 -13.02893,40.9755 -9.63296,61.29317 2.04335,12.22508 8.11106,28.33119 13.48199,35.78623 0.97715,1.35632 2.67693,3.7931 3.77722,5.41516 1.1003,1.62208 12.42713,13.52368 25.17134,26.44746 25.17057,25.52524 27.27553,27.99185 33.42738,39.18642 14.16473,25.77576 10.78166,66.2839 -7.54754,90.38675 -3.79287,4.98761 -7.02615,9.11967 -10.98502,14.03718 -2.08147,2.58545 -4.19912,5.30787 -4.70668,6.04908 -0.50755,0.74121 -3.21192,4.08262 -6.00903,7.426 -2.79711,3.34339 -5.4753,6.64385 -5.95101,7.33485 -0.47575,0.691 -2.71881,3.53909 -4.98428,6.32943 -2.26547,2.79035 -4.79804,5.98534 -5.62923,7.09869 -0.83119,1.11335 -3.36513,4.30697 -5.63062,7.09731 -2.26547,2.79034 -4.50633,5.64065 -4.97874,6.33496 -0.47242,0.69431 -3.01618,3.87811 -5.6541,7.07383 -2.63793,3.1957 -5.1835,6.37768 -5.65685,7.07107 -0.47334,0.69338 -3.03332,3.86098 -5.68862,7.0393 -2.6553,3.17833 -5.1861,6.37511 -5.62371,7.10422 -0.43761,0.72912 -2.66994,3.58796 -4.9608,6.35291 -2.29086,2.76496 -5.21523,6.36362 -6.49792,7.99776 -1.28268,1.63413 -3.37996,4.30985 -4.66111,5.9455 -1.28115,1.63568 -3.88587,4.91761 -5.78805,7.29342 -1.90217,2.37581 -4.13666,5.23252 -4.96632,6.34739 -0.82968,1.11487 -3.37402,4.29808 -5.6541,7.07382 -2.28006,2.77574 -4.82565,5.95772 -5.65685,7.07107 -0.8312,1.11335 -3.37677,4.29534 -5.65685,7.07107 -2.28008,2.77574 -4.82565,5.95771 -5.65686,7.07107 -0.8312,1.11334 -3.38845,4.28364 -5.68309,7.04483 -6.66186,8.01624 -8.82989,11.04834 -12.67682,17.72877 -1.98965,3.45508 -5.01638,8.06511 -6.72442,10.24614 -1.70809,2.18101 -4.66235,6.08408 -6.56698,8.67449 -3.05545,4.15558 -3.95492,4.83724 -7.64836,5.78667 l -4.1874,1.07723 -96.00216,95.62376 c -71.52593,71.24388 -96.29762,96.33651 -97.16091,98.42044 -0.63724,1.53839 -0.72798,4.14964 -0.20164,5.80326 0.9219,2.89656 1.75839,4.1774 7.72572,11.82467 1.50336,1.9265 2.73313,3.68221 2.73311,3.90154 6e-5,0.21926 -2.38498,2.91421 -5.30052,5.98829 -11.80309,12.44488 -14.29824,25.91308 -7.33623,39.59247 4.24445,8.33959 8.42771,13.05969 38.10921,43.00366 l 16.71918,16.86838 -2.06885,2.06886 c -1.39406,1.39406 -1.94021,3.1569 -1.67247,5.39859 0.5864,4.90979 7.9723,12.15257 12.75556,12.50694 1.89011,0.14002 3.98516,-0.1514 4.65558,-0.64772 0.67041,-0.49631 1.74425,-1.0235 2.38646,-1.17113 0.77197,-0.1774 14.86408,13.51096 41.58676,40.39895 22.22986,22.3671 51.76499,52.0715 65.63382,66.0096 24.11594,24.2361 25.1579,25.4003 23.89667,26.6614 -0.72543,0.7255 -1.49803,2.8166 -1.71666,4.6473 -0.36928,3.0913 -0.001,3.725 5.15688,8.8831 5.11111,5.1115 5.81118,5.522 8.77532,5.1679 1.77156,-0.2115 3.72273,-1.1242 4.33517,-2.0287 1.06559,-1.5739 1.60781,-1.1546 12.61741,9.7503 20.90962,20.7111 36.62359,35.6849 40.33136,38.431 16.94532,12.5506 32.72523,12.2915 47.17173,-0.7734 7.45997,-6.7465 7.33626,-6.7425 15.06191,-0.511 5.87949,4.7423 8.83668,5.9419 12.67549,5.1431 3.05379,-0.6363 8.13506,-5.5626 99.1648,-96.1679 94.35456,-93.9146 95.96942,-95.56992 97.37215,-99.72004 1.39965,-4.14082 1.57895,-4.32337 9.53356,-9.80141 4.45879,-3.07059 10.165,-6.38792 12.6823,-7.3708 4.90772,-1.91623 11.17281,-5.64789 16.61843,-9.89808 4.40117,-3.43512 9.01109,-7.01875 12.72926,-9.89815 7.58336,-5.87272 28.84123,-22.50527 32.72858,-25.60773 2.3792,-1.8988 5.23811,-4.13106 6.35293,-4.96078 1.1149,-0.82966 4.30974,-3.36236 7.10006,-5.62786 2.79032,-2.2655 5.6425,-4.50448 6.33773,-4.97598 0.69523,-0.4715 3.55902,-2.6989 6.36396,-4.94975 2.80495,-2.25086 5.66569,-4.48129 6.35703,-4.95668 0.69141,-0.47532 3.64034,-2.81345 6.55321,-5.19415 2.91287,-2.3807 5.93639,-4.76655 6.71886,-5.30196 0.7824,-0.53548 3.53685,-2.6763 6.12231,-4.75774 4.57704,-3.68481 7.51479,-5.99422 13.656,-10.73918 6.17443,-4.77053 44.54932,-34.69493 51.4503,-40.12004 6.64478,-5.22378 8.67823,-6.51576 15.28976,-9.71861 26.80877,-12.98747 65.03087,-11.6408 85.47437,3.01076 1.5857,1.13647 3.7209,2.50175 4.7439,3.03421 1.0232,0.53255 13.3832,12.3554 27.4667,26.27343 14.0834,13.91803 26.8492,26.14136 28.3685,27.16424 5.6699,3.81735 12.2812,7.40449 18.4165,9.98924 34.447,14.51214 72.3761,9.33553 102.8371,-14.03719 6.3701,-4.88797 82.9412,-81.3196 88.1149,-87.95468 5.7781,-7.41009 7.4493,-9.94435 11.9532,-18.12377 15.7499,-28.60271 15.1538,-66.11249 -1.4916,-93.81868 -3.6846,-6.133 -7.2435,-10.35014 -19.4164,-23.00997 -40.8308,-42.46384 -41.0512,-42.70616 -45.0739,-49.6784 -8.9252,-15.46892 -13.3623,-29.51075 -14.9736,-47.3872 -0.411,-4.55952 1.3913,-21.49402 3.7731,-35.4437 12.1237,-71.01491 2.2207,-139.59692 -29.5134,-204.35942 -7.943,-16.20989 -20.9358,-37.34517 -30.2233,-49.16602 -1.8823,-2.39572 -4.0956,-5.27357 -4.918,-6.39573 -4.671,-6.37365 -15.2142,-17.77712 -25.8992,-28.47347 z m -3.2372,3.63497 0.01,0.007 v 0.003 c 11.1475,11.17433 22.0094,23.03395 27.6076,30.59065 21.9885,29.68116 36.8566,57.23838 47.9313,88.84135 12.9554,36.96969 18.3462,69.52337 18.2439,110.14843 -0.057,22.66215 -1.962,41.35604 -6.4592,63.41175 -2.6141,12.81915 -3.1792,18.18313 -2.0358,19.32662 0.2696,0.26956 0.5503,4.57246 0.6243,9.56257 0.2654,17.97584 6.3824,34.72935 20.5365,56.25363 0.9257,1.40776 8.5531,9.6902 16.9498,18.4055 39.6869,41.19283 38.8732,40.27894 43.6017,49.02929 7.085,13.11115 10.0191,24.26487 10.4423,39.68498 0.5486,19.99341 -5.6178,41.56153 -15.9611,55.81583 -1.1045,1.52198 -2.4734,3.4542 -3.041,4.29239 -7.4353,10.9824 -79.4144,82.82003 -93.0067,92.82434 -20.342,14.97237 -46.834,22.01574 -70.3502,18.70383 -12.5346,-1.76532 -29.4566,-8.06037 -40.9349,-15.23046 -1.2678,-0.79193 -10.3852,-9.27007 -20.2616,-18.83912 -24.1057,-23.35574 -38.033,-36.47367 -39.6891,-37.38552 -0.7524,-0.41431 -2.8595,-1.73746 -4.6832,-2.94027 -13.0549,-8.60986 -33.6627,-12.97103 -53.207,-11.25848 -4.7112,0.41276 -13.0958,1.87667 -18.63203,3.25242 -4.82796,1.19951 -8.28058,1.85086 -8.43283,1.61858 l 10e-4,-10e-4 10e-4,-10e-4 10e-4,-0.001 0.001,-10e-4 10e-4,-10e-4 10e-4,-10e-4 c 0.005,-0.0337 0.0561,-0.0815 0.15627,-0.13929 0.98294,-0.57268 4.21527,-3.06793 7.18293,-5.54499 2.96766,-2.47699 6.31146,-5.17899 7.43016,-6.00482 2.2451,-1.6582 7.4084,-5.78674 14.5385,-11.62449 2.566,-2.10088 5.5774,-4.4989 6.6913,-5.32953 1.1137,-0.83076 4.4555,-3.53476 7.4259,-6.00907 2.9703,-2.47442 6.3083,-5.18222 7.4178,-6.01726 1.1094,-0.83509 4.3001,-3.37206 7.0904,-5.63755 2.7904,-2.26544 5.7164,-4.55554 6.502,-5.08785 0.7856,-0.53231 3.8116,-2.91577 6.7245,-5.29638 2.9129,-2.38071 5.8612,-4.71657 6.5517,-5.19284 0.6905,-0.47624 3.8699,-3.02444 7.0656,-5.66237 3.1957,-2.63793 6.4521,-5.23408 7.2368,-5.76731 0.7846,-0.53326 3.8101,-2.91713 6.723,-5.29779 2.9129,-2.38066 5.8618,-4.71612 6.5532,-5.19143 1.18,-0.81139 9.107,-7.07686 13.4281,-10.61353 4.4952,-3.67926 12.2628,-9.81162 13.4351,-10.6066 0.6952,-0.47148 3.5591,-2.69883 6.3639,-4.94975 2.8051,-2.25081 5.8608,-4.60441 6.7921,-5.2287 10.7111,-7.18018 43.3266,-39.83308 52.6462,-52.71269 0.8166,-1.12797 3.493,-4.81561 5.947,-8.19522 18.4009,-25.34229 33.6528,-55.80697 43.3944,-86.6745 9.4726,-30.01547 13.2662,-54.29679 13.5415,-86.67991 0.465,-54.71393 -14.7555,-109.44221 -43.5893,-156.73188 -6.2892,-10.31484 -7.7565,-12.5018 -13.4806,-20.10697 -1.2526,-1.66422 -2.7778,-3.79826 -3.3905,-4.74121 -7.0143,-10.79501 -41.4996,-45.27588 -54.2677,-54.25936 -1.0323,-0.72634 -4.2759,-3.05654 -7.2092,-5.17901 -8.3983,-6.0767 -9.8285,-7.01964 -18.7867,-12.3868 -41.5929,-24.91953 -91.3032,-40.87148 -137.53362,-44.13202 -61.61027,-4.34527 -123.72572,10.65219 -178.17296,43.01888 -7.52962,4.47607 -15.33764,9.39594 -17.35035,10.93392 -2.0127,1.53795 -3.91273,2.86335 -4.22193,2.94305 -0.30921,0.0797 -2.49855,1.64421 -4.8655,3.47891 -2.36691,1.83471 -5.10018,3.87442 -6.07393,4.53266 -10.79561,7.29778 -44.94189,41.49792 -52.66979,52.75267 -0.76293,1.1111 -4.10423,5.29007 -11.34547,14.1877 -0.87249,1.07207 -3.73895,4.56955 -6.36948,7.77266 -2.63054,3.20309 -5.17228,6.38891 -5.64857,7.07935 -0.4763,0.69044 -2.81353,3.6375 -5.1942,6.5504 -2.38067,2.9129 -4.76936,5.93358 -5.30882,6.712 -0.53946,0.7784 -2.97695,3.87535 -5.41517,6.88186 -2.43822,3.00651 -4.82113,6.03295 -5.2964,6.72441 -0.47528,0.69146 -2.88397,3.69213 -5.35164,6.66918 -2.46768,2.97705 -5.53239,6.75358 -6.81142,8.39137 -1.27904,1.63779 -3.37242,4.31738 -4.65143,5.95517 -1.27903,1.63778 -4.34515,5.41294 -6.81282,8.38998 -2.46766,2.97706 -4.9246,6.05179 -5.46074,6.83353 -0.53615,0.78174 -2.942,3.78524 -5.3475,6.67332 -2.40549,2.88807 -5.03715,6.17988 -5.84744,7.31413 -1.70382,2.38497 -4.98844,6.59981 -9.90916,12.71826 -5.86418,7.29156 -9.01892,11.24785 -11.60649,14.55645 -2.36396,3.02269 -2.36196,2.70057 0.0193,-6.72027 5.7649,-22.80698 3.41917,-46.3213 -6.52416,-65.39633 -4.90332,-9.4064 -5.63204,-10.3261 -19.99096,-25.26387 -44.03368,-45.80885 -40.77249,-42.05057 -46.65523,-53.75393 -11.22139,-22.32424 -12.69719,-48.89954 -4.06311,-73.15794 7.3531,-20.65934 13.69287,-28.99639 48.26695,-63.45592 47.31228,-47.155623 54.24706,-53.345367 69.46081,-62.00857 19.01128,-10.825643 44.30748,-14.869728 65.42118,-10.457445 12.48316,2.608701 23.16155,7.595663 35.87048,16.750971 1.58242,1.139948 14.42932,13.430708 28.54944,27.311999 14.12013,13.881295 26.82057,26.000305 28.22212,26.932205 18.85976,12.53971 31.80367,17.45985 54.30911,20.64421 14.16926,2.00485 13.50004,2.05022 46.18844,-3.05493 79.69021,-12.44572 173.75916,10.21097 239.31836,57.64164 4.2947,3.10715 8.8782,6.41269 10.1854,7.3459 6.7393,4.81107 18.1689,15.29573 29.3118,26.46402 z m -19.1195,19.16925 c 10.5655,10.54425 20.7103,21.57166 24.9269,27.58407 0.8016,1.14296 2.7052,3.69413 4.2302,5.66928 7.124,9.22673 18.1322,27.44395 25.217,41.73173 41.6161,83.92687 41.2259,180.43387 -1.0648,263.37657 -5.2195,10.23693 -12.6602,23.43153 -16.0108,28.39333 -0.627,0.92854 -1.7655,2.65402 -2.5301,3.83386 -2.7191,4.19523 -4.2814,6.40653 -7.0228,9.94779 -1.5272,1.97291 -3.3794,4.42188 -4.1169,5.4428 -9.7444,13.49038 -40.4801,44.26318 -52.3287,52.38665 -0.7818,0.53612 -3.8045,2.92264 -6.7175,5.3033 -2.9129,2.38067 -5.9357,4.76717 -6.7175,5.3033 -0.7817,0.53619 -3.8046,2.9227 -6.7175,5.30331 -2.9129,2.38071 -5.9389,4.76406 -6.7245,5.29637 -0.7856,0.53231 -3.7232,2.8108 -6.5283,5.06162 -2.8048,2.2509 -5.6683,4.47868 -6.3626,4.95109 -0.6943,0.47241 -3.8767,3.01757 -7.0724,5.65551 -3.1957,2.63793 -6.4189,5.20946 -7.1623,5.71481 -0.7435,0.50532 -4.0864,3.2081 -7.4287,6.00631 -3.3424,2.79811 -6.3254,5.15726 -6.6292,5.24251 -0.3037,0.0852 -3.1655,2.31452 -6.3597,4.95392 -3.1943,2.63942 -6.3723,5.18885 -7.0628,5.66513 -0.6903,0.47642 -3.8751,3.01929 -7.0766,5.65134 -3.2017,2.63191 -6.4272,5.20109 -7.1678,5.7093 -0.7405,0.50828 -4.0697,3.22487 -7.3984,6.03664 -3.3289,2.81169 -6.9616,5.79391 -8.0723,6.6278 -1.1105,0.83396 -3.9575,3.07817 -6.3267,4.98701 -2.3691,1.90883 -5.5628,4.44276 -7.0973,5.63062 -1.5345,1.18787 -4.5449,3.58681 -6.6899,5.33088 -2.1449,1.74415 -6.91479,5.56563 -10.59826,8.49363 -3.68346,2.92798 -8.79513,7.04405 -11.36066,9.14543 -2.56552,2.10138 -5.90526,4.80741 -7.42186,6.01317 -1.51653,1.20583 -4.69498,3.75495 -7.0628,5.66513 -7.99585,6.45025 -17.72359,14.15525 -20.51712,16.25242 -1.11073,0.83382 -3.96921,3.06651 -6.35293,4.96078 -2.3838,1.8942 -5.24355,4.12561 -6.35428,4.95943 -1.11072,0.83382 -3.97853,3.05718 -6.37365,4.94006 -2.39518,1.88282 -5.26426,4.1049 -6.37499,4.93872 -1.11072,0.83382 -3.78938,2.92813 -5.95242,4.65418 -5.66819,4.52323 -23.95451,18.9571 -27.4653,21.67862 -8.45273,6.5523 -9.97208,7.73691 -12.51799,9.75588 -8.98088,7.12219 -11.64768,9.22245 -13.45023,10.5914 -1.1052,0.83934 -4.30034,3.37177 -7.09871,5.62921 -2.79831,2.2575 -5.65339,4.49359 -6.34459,4.96912 -0.6912,0.47553 -3.55074,2.70716 -6.35569,4.95802 -2.80488,2.25093 -5.66739,4.47959 -6.35703,4.95668 -0.69148,0.47524 -3.55795,2.69994 -6.37089,4.94281 -2.81301,2.2428 -5.68104,4.46596 -6.37223,4.94148 -0.6912,0.47553 -3.5402,2.71769 -6.33222,4.98149 -15.98026,12.95654 -23.07234,17.34889 -31.951,19.78934 -12.26536,3.37137 -24.68176,2.40265 -36.42013,-2.84085 -5.49354,-2.45394 -5.98945,-2.92072 -53.9818,-50.91307 -26.64025,-26.64025 -92.18905,-92.50725 -145.664,-146.37111 l -97.22718,-97.93429 -2.18761,-5.23148 c -5.58527,-13.35751 -5.86836,-23.79935 -1.01785,-37.45317 3.21272,-9.04357 6.12114,-14.07933 12.72793,-22.03909 2.29309,-2.76272 4.85204,-5.93132 5.68723,-7.04069 0.8352,-1.10934 3.37787,-4.29423 5.64995,-7.07797 2.27208,-2.78374 4.81767,-5.96572 5.65685,-7.07107 0.83921,-1.10535 3.38478,-4.28734 5.65686,-7.07107 2.27207,-2.78374 4.81337,-5.97001 5.64857,-7.07935 0.8352,-1.10935 3.37205,-4.30006 5.63752,-7.0904 2.26548,-2.79034 4.50855,-5.63844 4.98427,-6.32944 0.47573,-0.69099 3.1539,-3.99146 5.95102,-7.33485 2.79711,-3.34339 5.49959,-6.68668 6.00489,-7.43014 0.50529,-0.74346 3.07694,-3.96653 5.71485,-7.16222 2.63794,-3.19572 5.1861,-6.3751 5.66239,-7.06554 0.47628,-0.69044 2.81351,-3.64028 5.19419,-6.55317 2.38068,-2.9129 4.76411,-5.93883 5.2964,-6.72442 0.53226,-0.78561 2.80936,-3.72199 5.06023,-6.52693 2.25087,-2.80495 4.47872,-5.66828 4.95113,-6.36258 0.47242,-0.69431 3.01754,-3.87675 5.65547,-7.07245 2.63792,-3.19571 5.18352,-6.37768 5.65685,-7.07107 0.47336,-0.69337 3.01893,-3.87536 5.65686,-7.07107 2.63792,-3.19569 5.18352,-6.37769 5.65685,-7.07106 0.47335,-0.69339 3.02021,-3.87409 5.65962,-7.06831 2.63941,-3.19422 4.86869,-6.05613 4.95389,-6.35981 0.0852,-0.30369 2.48435,-3.31393 5.33231,-6.68851 2.84795,-3.37459 5.86256,-7.04215 6.69817,-8.15107 0.83561,-1.10895 3.84404,-4.78267 6.68576,-8.16349 2.8417,-3.38084 5.55638,-6.71192 6.0325,-7.40253 0.47611,-0.69061 3.15391,-3.99147 5.95102,-7.33485 2.79712,-3.34339 5.50436,-6.6819 6.01593,-7.41909 0.51157,-0.7372 2.92447,-3.80079 5.36269,-6.80729 2.43821,-3.00651 4.86915,-6.11 5.40135,-6.89567 0.5322,-0.78568 2.93018,-3.79707 5.32817,-6.69265 2.39797,-2.8956 4.7173,-5.8606 5.15553,-6.58908 0.43822,-0.72852 3.1288,-4.08368 5.97863,-7.45639 2.84983,-3.37272 5.62168,-6.77169 6.15819,-7.55305 0.53651,-0.78137 2.93427,-3.79297 5.32954,-6.69128 2.39528,-2.89829 5.03539,-6.17889 5.86677,-7.29204 0.83139,-1.11317 3.52443,-4.46588 5.98417,-7.45086 2.45974,-2.98499 4.9108,-6.06837 5.44694,-6.85009 0.53615,-0.78174 2.93426,-3.79297 5.32954,-6.69128 2.39527,-2.8983 5.03324,-6.18104 5.86263,-7.29619 0.8294,-1.11515 3.22378,-4.13013 5.31987,-6.70094 2.09612,-2.57079 4.9305,-6.10036 6.29905,-7.84308 4.92854,-6.27602 6.92275,-8.76449 10.53617,-13.15191 6.3365,-7.69372 10.89451,-13.40058 12.02634,-15.0564 7.61184,-11.13562 40.8441,-44.3119 52.01099,-51.92543 0.74256,-0.5062 2.97663,-2.15763 4.96494,-3.66949 1.9883,-1.51188 4.56822,-3.38673 5.73281,-4.16668 1.93706,-1.29731 5.61087,-3.82617 9.49071,-6.53245 0.83845,-0.58485 2.21538,-1.4353 3.06044,-1.88931 0.84505,-0.45399 2.48672,-1.4659 3.64878,-2.24837 7.07007,-4.76071 20.72178,-11.95141 35.1979,-18.54222 51.79371,-23.58107 108.5896,-32.11817 162.7989,-24.46839 21.10046,2.97762 34.33336,6.05459 54.50246,12.67269 20.115,6.60033 23.9751,8.15702 40.6048,16.37532 16.0013,7.9078 33.8873,18.5994 43.5561,26.03589 2.4181,1.85985 4.9605,3.77231 5.65,4.24955 5.8999,4.08377 16.8859,14.1451 27.4514,24.68935 z m -48.695,38.98893 c -8.6957,-8.34136 -17.4832,-16.13985 -21.9618,-19.17199 -1.0852,-0.73474 -3.4466,-2.43486 -5.2467,-3.77721 -10.855,-8.09487 -33.6994,-20.26599 -51.2417,-27.30234 -53.0015,-21.25937 -113.74768,-22.66729 -167.96964,-3.89323 -26.68694,9.24021 -52.10825,23.03213 -71.96883,39.04693 -10.62986,8.57154 -38.26278,37.32688 -44.28118,46.07933 -0.5088,0.73997 -3.52489,4.39699 -6.70371,8.12621 -3.17883,3.72921 -6.34873,7.55968 -7.04344,8.5129 -0.69474,0.95323 -3.56395,4.45702 -6.37639,7.78508 -2.81246,3.32804 -5.53141,6.65484 -6.04217,7.39286 -0.51076,0.73799 -3.5609,4.43715 -6.7769,8.22149 -3.21601,3.78437 -6.24682,7.46904 -6.73548,8.18836 -0.48867,0.71931 -3.50833,4.38182 -6.7106,8.13863 -3.2023,3.75683 -6.21243,7.39553 -6.68989,8.08477 -0.47748,0.68927 -3.24833,4.07606 -6.15819,7.52821 l -5.29087,6.27694 -3.04663,-0.9695 c -8.35151,-2.65819 -10.69664,-0.88841 -27.94453,21.09167 -1.19697,1.52539 -3.73842,4.71149 -5.64857,7.07935 -1.91015,2.36783 -4.45574,5.54983 -5.65686,7.07106 -1.20112,1.52125 -3.73644,4.71349 -5.63337,7.09456 -4.41364,5.54009 -5.05038,8.68984 -2.89057,14.27609 1.7292,4.47252 1.715,4.53044 -1.88516,8.23808 -1.99381,2.05335 -4.0081,4.30482 -4.47605,5.0036 -0.46795,0.69878 -3.13693,4.00843 -5.9303,7.35557 -2.79336,3.34714 -5.49489,6.69136 -6.0035,7.43152 -0.5086,0.74015 -3.26493,4.09671 -6.12642,7.45778 -2.86145,3.36106 -6.17255,7.36854 -7.35695,8.9065 -4.09676,5.31976 -7.16025,9.14157 -11.32614,14.1297 -4.84932,5.80649 -9.60907,11.63095 -12.72101,15.56326 -1.20265,1.5197 -4.07103,5.01528 -6.37363,7.76851 -2.3026,2.75321 -5.15936,6.26041 -6.34877,7.79336 -1.18942,1.53295 -3.73522,4.71471 -5.65686,7.07107 -7.75032,9.50367 -9.93491,12.20095 -12.02633,14.84372 -1.20265,1.5197 -4.06522,5.0211 -6.36121,7.78093 -2.29597,2.75983 -5.16408,6.25571 -6.37224,7.7699 -1.20817,1.51419 -4.06182,5.02452 -6.34186,7.80027 -2.28007,2.77576 -4.82858,5.95481 -5.66376,7.06416 -0.83521,1.10935 -3.39806,4.27404 -5.69553,7.0324 -3.99907,4.80134 -7.94795,9.6539 -12.68925,15.59502 -1.2083,1.51406 -4.07188,5.01446 -6.36396,7.77817 -5.35566,6.45767 -7.35701,10.32993 -8.51153,16.46095 -0.99356,5.27636 -0.16724,10.43402 2.63923,16.46923 1.46381,3.14788 21.02448,23.03055 126.49477,128.56914 119.9183,119.99594 124.92679,124.90445 128.94893,126.41053 10.11602,3.78993 20.78731,1.40925 30.76743,-6.86667 2.9765,-2.46822 6.32319,-5.16729 7.43843,-5.99659 4.36356,-3.24476 15.3023,-11.94377 27.96525,-22.23934 2.57407,-2.09283 5.59686,-4.47942 6.71613,-5.30468 2.5581,-1.88612 35.96104,-28.52535 41.69859,-33.25474 2.34502,-1.93297 5.51918,-4.48637 7.05311,-5.6748 1.53393,-1.18844 4.88229,-3.88584 7.4412,-5.99384 2.5589,-2.108 7.66612,-6.22851 11.34961,-9.15648 3.68348,-2.92796 8.45196,-6.75084 10.59694,-8.49495 2.14498,-1.7441 5.15181,-4.14664 6.6816,-5.3392 1.52982,-1.19255 4.87619,-3.89194 7.43567,-5.99937 2.55949,-2.10742 6.15157,-5.03839 7.98257,-6.51311 7.82284,-6.30067 10.27109,-8.29072 15.40581,-12.52491 2.98404,-2.46067 5.99768,-4.85642 6.69681,-5.32401 0.69915,-0.46758 2.10921,-1.6412 3.13363,-2.60608 1.45157,-1.36727 2.76485,-1.40356 5.95379,-0.16711 4.73105,1.83437 8.21083,0.99351 13.79681,-3.33396 11.92188,-9.23558 16.37521,-12.71932 20.6263,-16.14325 2.58497,-2.08192 5.33988,-4.22505 6.12228,-4.76053 3.43156,-2.34841 12.28909,-9.71109 14.04399,-11.67423 2.5398,-2.84095 3.3316,-7.04192 2.1739,-11.53185 l -0.9419,-3.65155 4.9401,-3.90705 c 2.7177,-2.1485 7.5505,-6.06955 10.7391,-8.71457 3.1885,-2.64511 6.3627,-5.19851 7.0531,-5.67481 0.6905,-0.47631 3.8619,-3.03242 7.049,-5.67892 3.1871,-2.64657 6.7015,-5.49611 7.81,-6.33221 1.1085,-0.83602 4.6074,-3.70104 7.774,-6.36813 3.1664,-2.66712 6.6672,-5.53036 7.7796,-6.36255 1.1124,-0.83212 4.2868,-3.38539 7.0545,-5.6734 2.7677,-2.28806 6.2764,-5.14335 7.796,-6.34607 1.5198,-1.20265 4.6957,-3.75424 7.0587,-5.66923 6.0277,-4.88488 10.4456,-8.40539 17.3131,-13.79969 6.168,-4.84476 28.5489,-27.68349 33.948,-34.6413 27.0884,-34.90881 43.6947,-73.75446 49.8815,-116.68363 2.3256,-16.15233 2.328,-50.19181 0,-66.11034 -6.443,-44.08055 -23.3851,-83.53565 -50.7666,-118.23185 -4.1053,-5.20188 -12.7081,-14.08718 -21.4038,-22.42854 z m 0.9073,6.74375 c 8.5249,8.54577 16.8504,17.74604 21.3776,23.99605 8.4714,11.69524 11.7238,16.80502 18.7397,29.42642 16.7905,30.20584 27.9781,71.87622 28.9831,107.96361 0.6609,23.73464 -4.6126,57.69786 -12.5567,80.88915 -10.1939,29.7591 -20.3451,48.01219 -42.2027,75.88414 -3.3588,4.28287 -26.1536,27.19076 -28.9196,29.06315 -0.9276,0.62799 -4.4642,3.45542 -7.8596,6.2825 -3.3954,2.82713 -6.7365,5.53184 -7.4246,6.01041 -0.6881,0.47863 -4.0293,3.18326 -7.4247,6.0104 -3.3954,2.82712 -6.7382,5.53008 -7.4287,6.00631 -0.6906,0.47609 -3.9916,3.15384 -7.3349,5.95096 -3.3434,2.7971 -6.6844,5.50183 -7.4246,6.01041 -0.7401,0.50859 -4.0993,3.26238 -7.4646,6.11956 -3.3654,2.85723 -7.0451,5.85966 -8.1773,6.67195 -1.1323,0.81227 -4.4694,3.52096 -7.415,6.02007 -2.9456,2.49912 -6.6131,5.51381 -8.1497,6.69956 -1.5366,1.18575 -4.5416,3.59011 -6.6788,5.34197 -2.1372,1.75187 -5.7274,4.64987 -7.9798,6.44131 -4.0714,3.23817 -4.0908,3.28346 -3.0991,7.67044 1.6433,7.27026 1.3226,8.09373 -5.3241,13.71264 -3.25713,2.75272 -6.75357,5.5685 -7.77263,6.25621 -1.01907,0.68772 -4.22247,3.21187 -7.11802,5.6099 -2.89561,2.39795 -5.86137,4.71925 -6.58906,5.1583 -0.72768,0.43904 -3.25616,2.36535 -5.61959,4.27991 -14.29345,11.57796 -14.2048,11.53914 -20.07518,8.91344 l -4.27854,-1.91417 -9.29045,7.60002 c -5.1104,4.18002 -9.98608,8.06927 -10.8331,8.64273 -0.84702,0.57347 -4.25518,3.35146 -7.57378,6.17336 -3.31859,2.8219 -6.96118,5.79436 -8.09443,6.60565 -1.13325,0.81131 -4.4941,3.4962 -7.46882,5.96622 -2.9747,2.47001 -5.97321,4.88087 -6.66365,5.35716 -0.69044,0.47629 -3.85045,3.04383 -7.02135,5.70657 -3.17089,2.66273 -6.69344,5.50414 -7.82789,6.31424 -1.13444,0.8101 -3.99707,3.03867 -6.36258,4.95114 -2.36553,1.91247 -5.54569,4.45987 -7.06693,5.66099 -1.52123,1.20113 -4.69608,3.75383 -7.05449,5.67343 -4.12284,3.35572 -9.04414,7.33069 -14.86582,12.00424 -1.51009,1.21227 -5.02923,4.05709 -7.8196,6.32253 -2.79039,2.26543 -5.63777,4.50922 -6.32806,4.98565 -0.69028,0.47645 -3.86985,3.02446 -7.06554,5.66238 -3.19572,2.63793 -6.3777,5.1835 -7.07107,5.65686 -0.69338,0.47333 -3.86097,3.03331 -7.0393,5.68862 -3.17833,2.6553 -6.37648,5.18471 -7.1056,5.62233 -0.72911,0.4376 -3.59594,2.66195 -6.37086,4.94284 -15.81907,13.00266 -29.97241,23.74525 -32.23137,24.46424 -5.9016,1.8783 -11.18404,1.91604 -16.20407,0.11462 l -5.3254,-1.9114 L 623.30809,776.91549 C 528.26013,681.69815 499.55797,652.54727 497.97342,649.62523 c -5.19745,-9.58451 -3.16991,-19.13656 6.4413,-30.33654 3.23296,-3.7674 6.26764,-7.41486 6.74376,-8.10549 0.47611,-0.69061 2.88396,-3.69213 5.35164,-6.66917 2.46766,-2.97706 5.46353,-6.66335 6.65674,-8.1925 1.84966,-2.37043 19.51955,-24.06817 31.10303,-38.19343 1.92753,-2.35047 4.48694,-5.51863 5.68862,-7.03931 1.20168,-1.52069 3.90636,-4.86176 6.01041,-7.42462 2.10404,-2.56286 4.81052,-5.90215 6.01317,-7.42185 4.89361,-6.18379 8.7189,-10.87841 13.01794,-15.97344 2.49169,-2.95304 5.2122,-6.27829 6.04494,-7.39009 0.83275,-1.11179 3.84296,-4.78374 6.68989,-8.15935 2.84692,-3.37562 5.56606,-6.70225 6.04217,-7.39286 0.47612,-0.69061 3.17779,-4.03471 6.00489,-7.43014 2.82711,-3.39543 5.55868,-6.77676 6.06979,-7.5144 0.5111,-0.73767 3.21429,-4.08024 6.00765,-7.42738 2.79336,-3.34714 5.4739,-6.64526 5.95654,-7.32933 0.7306,-1.03552 11.68775,-14.15889 13.81758,-16.54933 0.35606,-0.39961 -0.23518,-2.64406 -1.31477,-4.98842 -2.52872,-5.49133 -2.15265,-7.42417 2.5895,-13.31764 2.14411,-2.66467 4.57812,-5.75503 5.40964,-6.86805 0.83151,-1.11304 3.53608,-4.45424 6.01041,-7.42462 2.47434,-2.97039 5.18225,-6.30825 6.01732,-7.41772 0.83506,-1.10947 3.39138,-4.28072 5.68171,-7.0462 2.29033,-2.76549 4.82551,-6.00624 5.63337,-7.20227 2.1906,-3.24313 6.23033,-4.63565 10.37596,-3.57559 5.41626,1.38493 6.74328,1.32153 7.89419,-0.37841 0.56997,-0.84183 3.67053,-4.59251 6.88738,-8.33474 3.21687,-3.74224 6.52915,-7.71245 7.36249,-8.82365 0.83333,-1.1112 3.84434,-4.78234 6.69127,-8.15797 2.84693,-3.3756 5.56627,-6.70201 6.04355,-7.39148 0.47727,-0.68944 3.34389,-4.1868 6.36948,-7.77265 3.02561,-3.58583 5.88939,-7.08602 6.36396,-7.77817 0.47459,-0.69215 3.33835,-4.19232 6.36396,-7.77818 3.0256,-3.58583 5.90213,-7.10935 6.39158,-7.82788 0.48947,-0.71853 3.50971,-4.38045 6.712,-8.13725 3.20229,-3.75682 6.22517,-7.4161 6.71751,-8.13173 6.94446,-10.09394 32.68023,-36.30689 43.74948,-44.56154 25.48429,-19.00434 50.02489,-31.61509 77.88532,-40.02196 64.63852,-19.50465 134.90741,-10.16293 194.15331,25.80939 5.9467,3.61065 12.6116,7.94699 14.8106,9.63708 2.1989,1.69011 4.6642,3.52618 5.4787,4.08106 5.3294,3.63088 14.0542,11.52251 22.579,20.0683 z M 726.62438,93.000958 c -4.63744,-4.473504 -9.7886,-8.158152 -14.93211,-10.446392 -9.55278,-4.249832 -15.0491,-5.504925 -24.10792,-5.504933 -10.33541,0 -21.02846,2.855743 -31.18589,8.329216 l -8.26984,4.458082 -39.30517,39.183689 c -38.89327,38.77461 -39.34622,39.26052 -43.31582,46.42321 -12.93439,23.33849 -11.80944,48.57977 2.99554,67.20414 14.976,18.83954 39.10493,26.82293 61.61772,20.38734 17.1005,-4.88841 20.93038,-7.96999 65.19885,-52.46815 38.89902,-39.10087 39.60876,-39.92817 45.038,-52.38253 4.96694,-11.39386 6.06144,-26.90309 2.75384,-39.05661 -2.4559,-9.02409 -8.75812,-18.67119 -16.48718,-26.12704 z M 1308.7376,677.83768 c -1.6253,-1.76232 -3.5,-3.57456 -5.7231,-5.57952 -16.4438,-14.82996 -37.0656,-18.98222 -58.3598,-11.75153 -15.2599,5.18164 -16.861,6.49383 -58.1043,47.65511 -20.0486,20.00899 -37.8288,38.18526 -39.511,40.39213 -17.344,22.75292 -17.9654,53.80516 -1.4777,73.72142 2.1617,2.61125 3.9439,4.92733 3.9609,5.14582 0.034,0.44471 3.9942,3.79097 9.2034,7.77545 8.6565,6.62137 22.9108,10.54644 35.7627,9.84835 9.1586,-0.49745 24.3497,-5.54459 32.0339,-10.64389 4.1664,-2.765 15.0916,-13.23248 44.4166,-42.55758 43.4229,-43.42282 42.9398,-42.83937 48.2765,-58.39159 3.8008,-11.07467 3.7951,-26.67347 -0.014,-37.24736 -2.9687,-8.24177 -5.5887,-13.08007 -10.4644,-18.36681 z M 727.78033,99.835867 c 1.56558,1.699793 2.93631,3.405853 4.02168,5.040903 7.6325,11.49797 10.70482,26.89091 8.01985,40.17664 -1.47265,7.28695 -6.11768,18.58597 -9.80282,23.84552 -2.6919,3.84197 -76.06081,77.02916 -80.35605,80.15719 -18.52676,13.49223 -43.98553,15.43279 -62.17154,4.73844 -11.08659,-6.5195 -21.50163,-19.849 -24.98214,-31.97034 -2.45743,-8.55831 -1.96577,-21.35073 1.19877,-31.14585 5.09471,-15.76952 5.66458,-16.47991 44.71622,-55.69295 19.01722,-19.09585 37.01547,-36.694914 39.99572,-39.109069 18.91174,-15.319588 42.9897,-18.829638 62.40218,-9.095712 5.80522,2.910897 12.26149,7.955779 16.95813,13.055228 z M 1303.3652,678.24366 c 17.3247,18.4006 19.4182,46.31012 4.5658,68.70261 -3.941,5.94187 -9.8378,12.13171 -42.4374,44.55053 l -37.8606,37.65063 -7.5047,4.0355 c -9.5464,5.1346 -18.286,7.36497 -29.0535,7.41222 -9.5039,0.0417 -19.0159,-2.46054 -26.964,-7.09315 -6.7029,-3.90681 -16.1593,-13.69586 -19.7465,-20.44259 -7.2018,-13.54481 -8.473,-29.23507 -3.53,-43.5865 4.8915,-14.20246 5.2813,-14.66429 47.7614,-57.14447 34.5753,-34.57528 38.7752,-38.52792 44.4179,-41.84913 23.4004,-13.773 48.0573,-12.21402 66.6849,4.21643 1.2899,1.13775 2.5116,2.32136 3.6667,3.54791 z M 714.16714,108.72305 c -0.81289,-0.83651 -1.67177,-1.64151 -2.5743,-2.41135 -13.8671,-11.827847 -34.3945,-12.206453 -50.75563,-0.93775 -8.42109,5.8 -73.05554,70.73743 -77.24727,77.60911 -8.07003,13.22949 -9.33039,28.20897 -3.42505,40.70007 3.49868,7.4005 13.56674,16.4459 21.43693,19.25762 10.80651,3.86076 24.93975,2.25034 35.70751,-4.06725 7.37141,-4.3249 77.48662,-74.22856 81.5714,-81.32556 9.53867,-16.57272 7.47996,-36.27758 -4.71359,-48.82489 z m 574.94546,578.08877 c -7.2418,-6.71492 -15.1428,-9.63323 -25.9033,-9.56801 -8.3843,0.0508 -15.2243,1.93224 -22.6316,6.22445 -5.6893,3.29693 -74.2677,71.39253 -79.3174,78.75956 -8.1597,11.90426 -9.9173,28.20874 -4.3904,40.71803 3.261,7.38117 13.905,17.1744 21.7849,20.0448 12.0048,4.37306 28.8355,1.41981 40.6393,-7.13181 3.1868,-2.3088 18.8178,-17.38964 38.866,-37.50155 30.4217,-30.51784 33.8863,-34.24114 37.3261,-40.09103 10.7688,-18.31435 8.3552,-37.79727 -6.3736,-51.45444 z M 709.19668,110.33751 c 8.71237,8.03235 13.07556,20.7238 10.02102,32.9578 -3.17636,12.72192 -2.56737,11.9668 -41.05638,50.82054 -21.41172,21.61462 -36.61263,36.38839 -39.44606,38.33568 -6.02443,4.14036 -15.68062,7.57381 -22.64536,8.05301 -3.19431,0.21978 -8.41175,-0.58353 -12.23765,-1.88515 -16.07675,-5.46954 -25.11933,-21.22362 -21.96865,-38.27078 0.51792,-2.80227 2.54684,-8.32247 4.50919,-12.26802 l 3.56868,-7.17327 34.98519,-34.91066 c 31.40029,-31.33184 35.58319,-35.24765 40.82851,-38.21553 9.71527,-5.49702 19.60611,-7.20299 29.15296,-5.02847 5.46971,1.24585 10.32836,3.93376 14.28853,7.58483 z m 579.75432,582.6104 c 7.7321,8.51515 10.8905,21.03566 6.7631,33.7602 -3.2643,10.06368 -5.1799,12.30631 -41.8587,48.98513 -22.6261,22.62608 -36.0229,35.47999 -39,37.42282 -12.3441,8.05377 -27.044,9.52613 -38.3219,3.83658 -15.0779,-7.60655 -21.7217,-25.23312 -16.0204,-42.50653 3.2958,-9.98585 6.1323,-13.32434 40.7277,-47.94235 20.766,-20.78012 34.4218,-33.87191 37.9062,-36.34285 7.6869,-5.45118 15.5882,-8.01342 24.7404,-8.02402 10.2686,-0.0119 19.0499,4.18819 25.0636,10.81102 z M 794.61021,610.66528 C 725.30292,541.06725 694.03924,510.13815 691.68751,508.8419 c -4.54985,-2.50791 -10.79273,-2.90979 -15.83395,-1.01785 -3.89884,1.46319 -7.11006,4.51241 -51.93921,49.31242 l -47.78357,47.75317 -1.74153,5.25221 c -1.86131,5.61346 -1.24122,11.90298 1.59652,16.19992 0.95188,1.44135 46.18928,47.05079 100.52932,101.35519 94.43755,94.37547 98.97675,98.79718 102.77768,100.11224 4.9846,1.72458 11.99395,1.10054 16.16402,-1.43631 1.75746,-1.06915 24.48349,-23.29263 50.5029,-49.38699 l 47.30849,-47.44383 1.43769,-4.57271 c 0.80857,-2.57146 1.00255,-6.70844 0.44332,-9.45617 l -0.99436,-4.88346 z m -3.0425,1.52607 98.93421,99.05569 1.04132,4.42772 c 1.9659,8.35492 1.0256,9.70033 -24.90893,35.67022 L 843.84666,774.16572 736.05431,666.37337 C 676.76868,607.08773 628.37985,558.22161 628.52437,557.78276 c 0.14449,-0.43888 10.48368,-10.94163 22.97544,-23.34005 24.1519,-23.97141 25.14397,-24.73354 31.7618,-24.40347 6.80409,0.33936 3.55864,-2.72281 108.3061,102.15207 z m 16.7496,82.77293 c -1.32493,-1.12292 -2.67059,-2.22087 -3.954,-3.39052 -0.0341,0.0214 -0.0694,0.0431 -0.10355,0.0649 1.32186,1.12961 2.66521,2.23704 3.99267,3.36014 0.0215,-0.0116 0.0433,-0.0235 0.0649,-0.0345 z m -12.29703,-11.09826 c -0.76409,-0.72364 -1.51783,-1.45744 -2.26632,-2.1973 l 1.12558,1.12557 1.10209,1.10209 c 0.0129,-0.01 0.0259,-0.0202 0.0388,-0.0303 z m 16.51342,26.15328 c -0.17703,-0.13771 -0.35639,-0.27252 -0.53719,-0.40468 l 0.47094,0.47094 c 0.0221,-0.0221 0.044,-0.044 0.0662,-0.0663 z m -8.06267,0.89217 -0.001,10e-4 h -0.003 l -10e-4,10e-4 -0.001,0.001 -10e-4,10e-4 c 0.2044,0.20722 0.40854,0.41419 0.61169,0.623 0.68057,0.69839 1.35957,1.39988 2.0233,2.11437 0.2627,0.2859 0.52198,0.57332 0.78306,0.86042 0.0338,-0.0296 0.0692,-0.0593 0.10374,-0.0896 l -0.62009,-0.62009 -1.91279,-1.91278 z m -52.8659,-40.5081 c 0.58993,0.78991 1.24475,1.44142 1.95136,1.95984 -0.59108,-0.59532 -1.18401,-1.18966 -1.77596,-1.78444 -0.0585,-0.0586 -0.11688,-0.11675 -0.1754,-0.1754 z m -18.23147,-1.76915 107.64447,107.65296 -24.04163,24.04163 -24.04163,24.04163 -3.96366,0.66292 c -2.18056,0.36496 -5.8277,0.0589 -8.10411,-0.67949 -4.06665,-1.319 -5.86512,-3.07012 -102.94066,-100.23376 -63.88836,-63.94635 -99.17651,-99.76491 -99.86364,-101.36349 -1.40004,-3.2571 -1.51904,-8.1117 -0.29554,-12.13958 0.84276,-2.77446 4.31154,-6.60222 23.53339,-25.96408 12.3999,-12.49026 22.97011,-22.92555 23.48782,-23.18952 0.6252,-0.3188 37.08795,35.6695 108.58509,107.17088 z m 81.36699,93.28009 c -0.0244,-0.0202 -0.0496,-0.0412 -0.0747,-0.0606 0.006,0.0114 0.0113,0.024 0.0165,0.0359 0.0194,0.008 0.0389,0.0167 0.058,0.0249 z m -55.48993,-55.21648 c -0.58133,-0.47569 -1.07797,-0.80487 -1.53298,-1.0137 0.53318,0.30122 1.04128,0.64658 1.53298,1.0137 z m 17.63348,18.98416 c -0.0716,-0.0673 -0.1067,-0.10104 -0.11334,-0.10485 l -10e-4,10e-4 c 0.006,0.0103 0.0931,0.1016 0.22084,0.23215 -0.0298,-0.0442 -0.0654,-0.0864 -0.10636,-0.12842 z m 16.30351,29.81312 c -0.041,-0.007 -0.0807,-0.0144 -0.12153,-0.0221 -0.27832,0.11082 -0.56645,0.19388 -0.85902,0.25687 0.33755,-0.0698 0.66418,-0.14859 0.98057,-0.23478 z m -1.16286,0.27069 c -0.31777,0.0595 -0.64575,0.0998 -0.96675,0.12982 -0.0156,0.0127 -0.0489,0.0288 -0.0939,0.047 0.36144,-0.0499 0.71947,-0.11007 1.06066,-0.17678 z m 8.99628,17.44013 c -0.03,0.0342 -0.0585,0.0684 -0.0868,0.10098 0.0208,0.0123 0.0436,0.0269 0.0677,0.0428 0.004,-0.0461 0.0101,-0.0941 0.0193,-0.14364 z m -0.14917,0.17123 -10e-4,10e-4 -10e-4,10e-4 c 0.0242,0.0284 0.0529,0.0628 0.0758,0.0899 -0.0298,-0.0355 -0.0539,-0.0666 -0.0732,-0.0925 z m -0.20163,0.27898 c -0.004,0.0276 -0.01,0.0549 -0.0152,0.0842 0.007,-0.0317 0.0134,-0.0602 0.0152,-0.0842 z m -53.87685,-48.53487 c -0.33963,-0.10622 -0.66918,-0.24254 -0.9916,-0.39775 0.26391,0.17327 0.5378,0.3288 0.82173,0.46543 0.055,-0.0212 0.11236,-0.0443 0.1699,-0.0676 z m -92.25257,-72.37901 c -1.09164,-1.09164 -2.82385,-0.68732 -8.02677,1.87273 -3.64919,1.79553 -6.83055,3.06894 -7.06968,2.82981 -0.23911,-0.23911 0.51415,-2.19053 1.67385,-4.33656 3.82099,-7.0706 4.17576,-9.43697 1.76087,-11.71835 -1.73814,-1.64198 -2.50028,-1.75343 -3.7137,-0.54001 -0.84013,0.84015 -5.30737,3.39819 -9.92574,5.6831 -4.61836,2.28491 -8.49636,4.25372 -8.61786,4.37522 -0.12149,0.1215 0.51871,0.96065 1.4225,1.86444 1.42644,1.42644 2.56687,1.16049 8.64411,-2.01497 l 7.00201,-3.65983 -3.29385,7.01444 c -2.82223,6.01066 -3.06398,7.30231 -1.69318,9.04324 1.48785,1.8896 2.19114,1.75477 10.08041,-1.9404 11.85571,-5.55294 13.49521,-6.73468 11.75703,-8.47286 z m -44.57119,-44.50769 c -2.09212,-2.02325 -2.66077,-1.99619 -3.58664,-1.07033 -0.75069,0.7507 -5.29986,3.39448 -10.10942,5.87507 -4.80956,2.48059 -8.84197,4.60358 -8.96174,4.7191 -0.11978,0.11554 2.22532,2.52852 5.21215,5.36132 6.41012,6.07952 11.11712,7.50909 17.37659,5.27844 5.40014,-1.9244 8.16474,-5.09514 7.86933,-9.02666 -0.1889,-2.51392 -1.29224,-4.31789 -5.13067,-8.38723 -1.10592,-1.17239 -1.97221,-2.0753 -2.66956,-2.74975 z m 56.18185,56.2288 c -1.86462,-1.79617 -4.25355,-3.38728 -6.51173,-3.93467 -6.48702,-1.57247 -9.03794,2.65149 -6.78795,11.23776 0.46801,1.78606 0.18096,2.29374 -1.52747,2.71518 -2.03516,0.50205 -6.31182,-2.82241 -8.23945,-6.4054 -0.46092,-0.85671 -1.38636,-0.8757 -2.50939,-0.0511 -1.48331,1.0891 -1.43011,1.7368 0.31902,3.89047 6.01256,7.40312 12.76038,9.45146 17.11557,5.19696 1.53124,-1.49588 1.68897,-2.84498 0.73612,-6.33496 -0.66598,-2.43928 -0.83464,-4.81656 -0.37428,-5.28258 1.73148,-1.75396 6.06433,0.76986 7.27133,4.23573 0.37835,1.08645 1.27561,1.66317 2.42377,1.55646 2.84189,-0.26412 1.19216,-3.83024 -1.91554,-6.82385 z m 15.73314,15.74968 c -1.46934,-1.4566 -3.27828,-2.6426 -5.1942,-3.25242 -9.48355,-3.01849 -21.09259,3.95026 -18.66513,11.20461 0.69058,2.06379 2.12542,3.65948 6.61255,7.35833 1.74073,1.4349 9.03921,1.43932 12.52767,0.007 3.75001,-1.5398 7.7487,-5.05398 8.17316,-7.18432 0.50314,-2.52523 -1.00494,-5.70564 -3.45405,-8.13311 z m -53.2209,-53.21524 c -2.40194,-2.39769 -2.81588,-2.17658 -3.99543,-1.00127 -0.89141,0.88858 -5.42302,3.43119 -10.07075,5.65133 -4.64772,2.22016 -8.58422,4.17032 -8.74769,4.33379 l -10e-4,10e-4 c -5.5e-4,5.3e-4 -0.002,0.002 -0.003,0.003 v 0.003 l -0.001,10e-4 -10e-4,0.001 -10e-4,10e-4 c -0.0563,0.26189 2.47785,3.0579 5.719,6.29905 5.51992,5.51993 6.71315,6.12525 7.73398,3.93328 0.16952,-0.36397 -1.09387,-1.89995 -2.80632,-3.41399 -3.70113,-3.2723 -3.65067,-4.2145 0.31902,-5.87921 2.49837,-1.0477 3.38602,-0.85662 5.40274,1.1601 1.73578,1.73578 2.82608,2.13158 3.8877,1.41283 1.147,-0.77656 0.99162,-1.48324 -0.69744,-3.17231 -2.22689,-2.2269 -1.80928,-3.59854 1.30926,-4.30065 1.09142,-0.24572 2.91069,0.8158 5.121,2.98863 2.55093,2.50766 3.69913,3.10122 4.48433,2.31604 0.83225,-0.83226 -0.11533,-2.3127 -4.48571,-7.00477 -1.34399,-1.44298 -2.36619,-2.53323 -3.16679,-3.33251 z m 50.98903,55.62113 c 0.29859,0.30566 0.54113,0.65654 0.71677,1.051 1.34998,3.03121 -2.96493,6.55824 -10.11494,8.26983 -6.00367,1.4372 -9.99104,-2.92326 -6.13885,-6.71337 4.47684,-4.40457 12.64928,-5.56087 15.53702,-2.60746 z M 610.7983,613.87768 c 0.18733,0.16231 0.37505,0.35497 0.57725,0.58008 2.71382,3.02013 1.61962,6.1175 -2.93754,8.31542 -2.05124,0.9893 -4.94046,1.79954 -6.42058,1.79953 -2.75528,10e-6 -8.32053,-3.30807 -7.29342,-4.33518 0.31371,-0.31371 3.79253,-2.18356 7.73122,-4.15425 5.76207,-2.883 7.03172,-3.34175 8.34304,-2.20556 z m 168.34803,170.54117 c -1.26933,-1.26933 -1.81362,-1.11241 -10.94772,3.17508 -7.49108,3.51626 -7.67118,3.66186 -6.27143,5.06161 0.84644,0.84644 2.17696,1.00979 3.2248,0.39637 1.32475,-0.77552 2.37961,-0.44881 4.09486,1.26644 1.71525,1.71525 2.04057,2.76874 1.26506,4.09349 -0.61038,1.04266 -0.44965,2.37878 0.3867,3.21512 1.38104,1.38104 1.56137,1.15439 5.11133,-6.47583 4.35961,-9.37044 4.39003,-9.47865 3.1364,-10.73228 z m 8.67311,8.67311 c -1.10141,-1.10143 -2.00047,-0.49652 -7.61245,5.11547 -5.08812,5.08811 -6.159,6.56891 -5.3392,7.38872 0.75229,0.75228 2.1647,-10e-4 5.3033,-2.82843 l 4.27854,-3.85318 -1.70285,7.06692 c -2.36735,9.82341 -0.777,10.26218 7.43567,2.04951 5.02202,-5.02202 6.08075,-6.49525 5.26187,-7.31414 -0.75229,-0.75229 -2.1647,0.001 -5.3033,2.82843 l -4.27717,3.85456 1.60204,-6.52969 c 0.97966,-3.99131 1.11709,-7.01464 0.35355,-7.77817 z m -30.91806,-30.90958 c -1.05282,-0.94011 -4.02845,-0.0111 -9.29321,2.36854 -4.47306,2.02174 -8.35404,3.8987 -8.62615,4.17081 -0.2721,0.2721 0.14058,1.13221 0.9184,1.91002 0.77782,0.77782 1.88034,0.94809 2.45002,0.37841 0.56968,-0.56968 1.88512,-0.77141 2.92234,-0.44746 2.42252,0.7566 4.20443,4.6344 2.78285,6.05598 -0.61203,0.61204 -0.46881,1.69946 0.33007,2.49835 0.77783,0.77781 1.52364,1.30481 1.65591,1.17253 0.13227,-0.13228 1.99088,-3.84212 4.13077,-8.24359 2.79273,-5.74426 3.84973,-8.86284 2.729,-9.86359 z m -9.15925,-8.9659 c -0.79871,-0.71837 -1.89216,0.15203 -6.02146,4.28132 -4.3375,4.3375 -5.56147,5.1501 -6.43854,4.27302 -0.59558,-0.59557 -0.78902,-1.74361 -0.42951,-2.55083 0.3595,-0.80723 0.21029,-1.91103 -0.33146,-2.45278 -1.51678,-1.51678 -3.78687,1.45365 -3.28555,4.29927 0.52073,2.95583 3.2421,5.10857 5.93859,4.69563 1.04764,-0.16046 4.11503,-2.59829 6.89291,-5.4787 4.17118,-4.32511 4.84037,-5.43538 4.00786,-6.66504 -0.11006,-0.16252 -0.21877,-0.29923 -0.33286,-0.40187 z m 21.33887,21.36928 c -0.39037,-0.4089 -0.83321,-0.82897 -1.32443,-1.26645 l -3.8007,-3.38085 -6.21483,6.15954 c -5.40824,5.36029 -6.05639,6.31799 -5.00085,7.37353 0.85158,0.85157 1.96261,0.59334 3.73165,-0.86456 1.90569,-1.57052 2.87466,-1.74074 3.97057,-0.69744 3.78826,3.60652 7.30726,3.75352 9.73929,0.40604 1.90836,-2.62668 1.63078,-4.86641 -1.10209,-7.72846 z m -3.57696,0.58557 c 0.2797,0.24293 0.58662,0.60076 0.95986,1.0703 1.23764,1.55948 1.32372,2.56537 0.30659,3.5825 -1.01713,1.01713 -2.02301,0.93104 -3.58248,-0.3066 -1.87956,-1.49164 -1.92036,-1.96873 -0.3066,-3.58249 1.21032,-1.21032 1.78354,-1.4925 2.62266,-0.76373 z m -13.15329,-8.90237 c 0.18188,0.18226 0.0132,0.78033 -0.35356,1.99151 -0.38068,1.2573 -0.79919,2.23951 -0.9626,2.27461 l -0.0127,10e-4 -0.006,0.006 -10e-4,-0.001 -0.001,-10e-4 -10e-4,-10e-4 -0.008,0.008 -0.001,-0.001 h -0.003 l -10e-4,-10e-4 -0.008,0.008 c -3.46388,-1.9984 -3.48827,-2.40831 -0.22512,-3.83799 0.91503,-0.4009 1.39527,-0.59658 1.56613,-0.42537 z m 22.32358,22.74343 c 0.17069,0.16079 -0.0406,0.62131 -0.56624,1.51918 -0.60687,1.03667 -1.53384,1.78161 -2.06055,1.65727 -1.53816,-0.36311 -0.57659,-2.48713 1.37554,-3.03834 0.70601,-0.19934 1.10969,-0.27118 1.25125,-0.13811 z M 439.41457,618.8013 l -0.37152,4.84893 c -0.92966,12.14281 2.06797,23.99634 8.39275,33.19396 3.02117,4.39344 35.96857,37.81902 146.55479,148.68163 128.245,128.56547 143.19257,143.32338 147.96072,146.0797 6.20634,3.58761 15.70488,6.66202 21.49355,6.95644 2.24628,0.11428 5.44073,0.30744 7.09873,0.43093 l 3.01486,0.2251 -2.57291,1.63105 c -9.0795,5.76091 -15.79983,6.69504 -24.21845,3.36701 l -5.31159,-2.09922 -48.7434,-48.60255 C 665.90436,886.78277 643.9706,864.76288 643.97007,864.58166 643.9698,864.40016 597.24854,817.46659 540.14414,760.28341 452.79852,672.8173 435.87601,655.55253 433.53675,651.52155 c -5.94627,-10.24655 -5.13884,-19.2344 2.57569,-28.67788 z m -13.15468,11.10517 c 0.25701,0.2102 0.0217,1.02812 -0.54828,2.81876 -1.3413,4.21414 -0.81925,10.66962 1.31064,16.20683 l 1.65313,4.2965 -93.14333,92.75939 c -51.22819,51.01762 -93.47377,92.76218 -93.87809,92.76219 -0.40403,-2.8e-4 -0.73768,-0.28075 -0.7346,-0.62713 -4e-5,-0.34327 -1.38996,-2.39957 -3.08944,-4.56998 -5.05638,-6.45744 -6.15829,-8.36998 -5.97313,-10.36214 0.13635,-1.46666 21.61358,-23.26295 95.46772,-96.89021 52.4093,-52.24829 96.22571,-95.42916 97.36939,-95.95518 0.86835,-0.39938 1.36626,-0.60269 1.56613,-0.43918 z m 336.55247,340.19296 c 5.03963,-2.39661 -4.85858,8.02033 -56.49676,59.45217 -31.82354,31.6963 -74.79788,74.5122 -95.49808,95.1445 -34.74277,34.6297 -37.84846,37.5367 -40.38237,37.7861 -2.77384,0.2729 -4.02683,-0.3605 -10.56795,-5.342 -1.98697,-1.5133 -3.99735,-2.8495 -4.46913,-2.9666 -0.47184,-0.117 -0.53341,-0.9429 -0.13536,-1.8368 0.39808,-0.8938 34.53612,-35.0483 75.86485,-75.8979 41.32803,-40.8502 83.11367,-82.21396 92.8547,-91.91836 l 17.71083,-17.64451 5.56433,2.20281 c 5.12288,2.02742 12.43173,2.50585 15.55501,1.02066 z M 583.38676,807.02014 c 32.29405,32.60802 59.68605,60.31863 60.87195,61.57906 l 2.15585,2.29119 -11.98492,11.68107 -11.9849,11.68107 -18.2522,-18.41792 c -12.89201,-13.00783 -18.64039,-18.33446 -19.57249,-18.13618 -0.72585,0.15438 -6.97371,5.92436 -13.88249,12.82183 l -12.56218,12.54011 -23.67288,-23.67288 -23.67289,-23.67289 13.06629,-13.45021 13.06628,-13.45023 -18.14861,-18.55464 c -9.98198,-10.2043 -18.14999,-18.69383 -18.15,-18.86539 1e-5,-0.80548 21.8205,-23.14565 22.84287,-23.387 0.78122,-0.1844 20.49778,19.24758 59.88034,59.01303 z m -152.1343,-150.58475 24.48909,24.65207 c 13.46901,13.55868 27.56742,27.81604 31.3309,31.68446 l 6.8432,7.03378 -108.84885,107.87933 c -59.86679,59.33373 -109.11701,107.89279 -109.4441,107.90836 -0.58527,0.0279 -15.68467,-14.63037 -17.4774,-16.96644 -0.50533,-0.65849 -6.50205,-7.06887 -13.32457,-14.24707 -13.26059,-13.95213 -16.39131,-18.59055 -18.04639,-26.7223 -1.08396,-5.32533 -0.35484,-11.12988 2.11853,-16.87662 1.64247,-3.81611 4.38483,-6.86114 21.77944,-24.1825 10.94531,-10.8992 56.05248,-55.89525 100.2393,-99.99071 z m 64.6975,65.40462 12.34675,12.34675 12.34813,12.34812 -12.05534,12.08575 c -6.62999,6.64753 -12.13797,12.44546 -12.24178,12.88535 -0.10385,0.43986 7.99045,8.95261 17.98841,18.91649 11.672,11.63226 18.08316,18.53938 17.91245,19.29904 -0.43087,1.91734 -9.00146,10.10899 -9.86774,9.43132 -2.08452,-1.63071 -13.0254,-12.52264 -36.3207,-36.15775 l -25.44756,-25.81768 17.66938,-17.66938 z m 178.83035,178.96568 31.36544,31.85709 31.36681,31.85572 -14.46391,14.32306 c -7.95558,7.87709 -52.11214,51.83634 -98.12347,97.68704 -46.01182,45.8511 -85.43382,84.5845 -87.60529,86.0723 -11.58272,7.9363 -23.83788,6.9711 -37.58854,-2.9568 -2.59695,-1.8749 -13.42288,-12.0343 -24.05681,-22.5791 l -19.33358,-19.1734 52.09803,-51.5345 c 28.65362,-28.344 77.80226,-77.18808 109.21898,-108.5423 z m -14.9473,-14.38106 12.18506,12.19355 -17.67767,17.67767 -17.67767,17.67767 -30.99529,-30.9953 c -17.04718,-17.04718 -30.99394,-31.26094 -30.99393,-31.58502 -10e-6,-0.32409 2.29211,-2.88045 5.09337,-5.68172 l 5.09339,-5.09338 17.62242,18.08647 c 9.69215,9.94774 18.24768,18.42603 19.01455,18.84053 1.17673,0.63602 3.17971,-1.04848 12.83426,-10.79581 6.29191,-6.35229 11.86157,-11.76639 12.37713,-12.03186 0.57985,-0.2986 5.58543,4.16696 13.12291,11.70869 z m -200.22999,-123.99504 29.4872,29.55621 29.4872,29.55622 -6.36396,7.07107 -6.36396,7.07107 26.12843,26.49855 26.12842,26.49855 7.1056,-6.69956 7.10559,-6.69956 23.58449,23.79166 c 12.97131,13.08557 26.33822,26.61159 29.70539,30.05894 l 6.12228,6.26867 -29.35322,28.98309 -29.35186,28.98449 -68.58936,-68.58936 C 466.71111,887.05548 428.0557,848.22966 418.53423,838.50016 l -17.31174,-17.69005 29.19031,-29.1903 z m 14.06894,43.54921 c -6.70645,-7.15049 -17.7618,-9.92359 -27.54678,-6.72027 -4.20405,1.37629 -5.91451,2.57088 -10.10803,7.05587 -5.30655,5.67535 -6.85502,9.0462 -7.47846,16.28692 -0.43108,5.00614 0.88039,9.474 4.45393,15.1738 9.32031,14.86587 29.92517,16.28239 41.47346,2.85054 8.47628,-9.8588 8.66592,-22.80118 0.48752,-33.15806 -0.4068,-0.51513 -0.83454,-1.0121 -1.28164,-1.4888 z m 115.62577,115.83846 c -0.58085,-0.63785 -1.19146,-1.2486 -1.83277,-1.82429 -6.58096,-5.93678 -16.13307,-8.55861 -25.6271,-5.69277 -3.39323,1.02428 -5.58708,2.54849 -10.01412,6.95644 -4.9369,4.91554 -5.84812,6.33004 -7.04892,10.95734 -1.76808,6.81124 -1.08462,12.84622 2.15309,18.98279 3.28394,6.22409 8.49663,10.65501 15.06054,12.80388 16.70612,5.46906 34.24323,-7.50592 34.01426,-25.16439 -0.0863,-6.65257 -2.63912,-12.55394 -6.70508,-17.0189 z M 470.42645,807.93164 c 3.93418,3.75737 6.26788,8.95106 6.67057,15.15031 0.96102,14.79504 -13.77615,26.24038 -28.32155,21.99625 -12.70277,-3.70652 -18.85462,-14.80742 -15.24011,-27.50119 3.4749,-12.20298 15.96418,-18.75439 28.15031,-14.76499 3.44318,1.12719 6.38028,2.86519 8.74078,5.11962 z m 114.01406,114.42838 c 0.8473,0.74109 1.65871,1.56225 2.42243,2.46655 6.16393,7.29845 7.23643,15.68704 3.08393,24.08997 -5.08631,10.29257 -16.41937,14.98305 -27.61448,11.42837 -1.71918,-0.54594 -5.0534,-2.62109 -7.40808,-4.61274 -3.57711,-3.02572 -4.58598,-4.55911 -6.14022,-9.31669 -1.11442,-3.41195 -1.5458,-7.66581 -1.07447,-10.6149 2.80733,-17.56226 24.02134,-24.55684 36.73093,-13.4406 z m -169.39903,-82.13487 -60.85122,60.47557 c -33.4675,33.26061 -61.72508,61.02809 -62.79577,61.70749 -1.77376,1.12552 -2.35404,0.82795 -6.52969,-3.34771 -3.17934,-3.17934 -4.32062,-4.86198 -3.7275,-5.49527 2.26425,-2.4175 84.80056,-84.56876 102.94756,-102.46695 l 20.64835,-20.36385 5.15276,4.74674 z m -14.56059,-14.28992 c 1.02476,1.10537 0.90258,1.72763 -0.007,2.93751 -0.76964,1.02387 -27.3064,27.45224 -58.97298,58.7299 l -57.57673,56.86963 -2.51769,-2.16413 c -1.48394,-1.27364 -2.29261,-2.67007 -1.96803,-3.39879 0.30297,-0.68019 26.70912,-27.20622 58.6802,-58.94814 l 58.12915,-57.71206 2.81186,2.38095 c 0.60935,0.51601 1.0781,0.93809 1.41968,1.30655 z m 153.13004,153.61343 4.69152,4.85443 4.69285,4.85308 -61.03908,61.16053 c -33.57103,33.6389 -61.723,61.5904 -62.56099,62.1136 -1.21775,0.7603 -2.28434,0.1904 -5.31435,-2.8395 -6.594,-6.5941 -9.77672,-2.4754 39.05384,-50.5609 23.56547,-23.2058 51.31409,-50.6066 61.66189,-60.8885 z m -136.03666,-135.97019 58.4758,58.78791 c 32.16209,32.33363 62.07303,62.40396 66.46943,66.82298 l 7.99524,8.03343 -30.94559,30.21911 c -17.0206,16.6202 -42.18513,41.4126 -55.92082,55.095 l -24.97388,24.8771 -66.13658,-66.1366 c -52.27133,-52.27129 -66.01785,-66.38847 -65.5662,-67.33392 0.31432,-0.65795 25.32918,-25.75929 55.58799,-55.78134 z m 148.3778,149.0849 2.85329,2.85329 2.8519,2.8519 -59.03924,58.63874 -59.04205,58.6388 -2.38221,-2.2748 c -1.31082,-1.25 -2.3837,-2.5636 -2.38373,-2.9195 -4e-5,-0.3559 26.35791,-27.0044 58.57253,-59.2189 z m -230.78198,-4.68459 c 10.07132,10.15194 37.00597,37.15192 59.84726,60.00732 l 41.52484,41.5602 -2.12132,2.1214 -2.11856,2.1185 -65.99708,-65.9971 C 330.0071,991.491 300.3081,961.36872 300.30812,960.85016 c -5e-5,-0.5185 0.74288,-1.68477 1.65038,-2.59227 1.91499,-1.91498 0.98539,-2.74346 33.20227,29.73024 z" />
  </g>
</svg>
